# xmcd CD database file
#
# Track frame offsets:
#	150
#	9986
#	21671
#	36204
#	55263
#	64957
#	79950
#	93079
#	105552
#	118129
#	127185
#	139188
#	150149
#	167710
#	181030
#	196407
#	212859
#	224927
#	242075
#	256271
#	265976
#	278494
#
# Disc length: 3873 seconds
#
# Revision: 0
# Processed by: cddbd v1.5.2PL0 Copyright (c) Steve Scherf et al.
# Submitted via: CDex 1.70beta2
#
DISCID=420f1f16
DTITLE=Premium Standard - Premium Standard, Ballroom Moods
DYEAR=2009
DGENRE=Ballroom
TTITLE0=Hollywood Movie Strings - Campfire (LW 28)
TTITLE1=Tamara Prado - Stars and Midnight Blue (LW 28)
TTITLE2=Noirot Laurente - Ballade (LW 28)
TTITLE3=Hannalicious - Turning (LW 29)
TTITLE4=Peter Douglas - That's What God Looks Like To Me (LW 29)
TTITLE5=Hollywood Movie Strings - If There Was A Man (LW 29)
TTITLE6=Leandra Gamine feat. Luis Stazo - Tango Stazo (TA 31)
TTITLE7=Carlos Ortega - Sentimientos II (TA 32)
TTITLE8=Ralf Gscheidle - Tango Concertante A (TA 32)
TTITLE9=P.S. Tango Orchestra - Adios Tango (TA 32)
TTITLE10=Victoria Strings Orchestra - Yumeji's Theme (WW 57)
TTITLE11=Lykke Anholm - The Last Man In My Life (WW 58)
TTITLE12=Noirot Laurente - La vie est belle (WW 59)
TTITLE13=Hollywood Movie Strings - Girl With A Pearl Earring (WW 59)
TTITLE14=Suzanne Bogren - Too Close For Comfort (SF 28)
TTITLE15=Tom Gaebel - Fool For Your Love (SF 29)
TTITLE16=Engelbert Humperdinck - I'll Walk Alone (SF 28)
TTITLE17=Brain Evans - Don't Worry, Be Happy (SF 29)
TTITLE18=Big Swng Brassists - Swing, Swing, Swing (QU 50)
TTITLE19=Anja Odenthal - The Travellin' Life (QU 50)
TTITLE20=P.S. Swing Orchestra - Happy Feet (QU 50)
TTITLE21=Tony Daniels - The Letter (QU 50)
EXTD=YEAR: 2009
EXTT0=
EXTT1=
EXTT2=
EXTT3=
EXTT4=
EXTT5=
EXTT6=
EXTT7=
EXTT8=
EXTT9=
EXTT10=
EXTT11=
EXTT12=
EXTT13=
EXTT14=
EXTT15=
EXTT16=
EXTT17=
EXTT18=
EXTT19=
EXTT20=
EXTT21=
PLAYORDER=
